<?xml version="1.0" encoding="UTF-8" standalone="no"?>
<svg
   width="16px"
   height="16px"
   viewBox="0 0 24 26"
   fill="none"
   version="1.1"
   id="svg20"
   sodipodi:docname="client.svg"
   inkscape:version="1.2.1 (8a69933317, 2022-10-28, custom)"
   xmlns:inkscape="http://www.inkscape.org/namespaces/inkscape"
   xmlns:sodipodi="http://sodipodi.sourceforge.net/DTD/sodipodi-0.dtd"
   xmlns="http://www.w3.org/2000/svg"
   xmlns:svg="http://www.w3.org/2000/svg">
  <defs
     id="defs24" />
  <sodipodi:namedview
     id="namedview22"
     pagecolor="#ffffff"
     bordercolor="#000000"
     borderopacity="0.25"
     inkscape:showpageshadow="2"
     inkscape:pageopacity="0.0"
     inkscape:pagecheckerboard="0"
     inkscape:deskcolor="#d1d1d1"
     showgrid="true"
     inkscape:zoom="9.1381776"
     inkscape:cx="23.199374"
     inkscape:cy="17.563677"
     inkscape:window-width="1128"
     inkscape:window-height="688"
     inkscape:window-x="0"
     inkscape:window-y="0"
     inkscape:window-maximized="1"
     inkscape:current-layer="svg20">
    <inkscape:grid
       type="xygrid"
       id="grid1014" />
  </sodipodi:namedview>
  <path
     d="m 15.884209,1.0597387 c 0.07574,0.018863 0.136295,0.075632 0.16,0.15 l 2.114,6.182 c 0.04545,0.1019382 0.001,0.2215071 -0.1,0.269 -0.804604,0.4366524 -1.438166,1.1322324 -1.798,1.974 -0.358251,0.8394213 -0.419972,1.7758163 -0.175,2.6549993 0.293938,0.958828 0.915021,1.784108 1.755,2.332 0.842,0.55 1.852,0.79 2.854,0.68 0.112181,-0.0066 0.21666,0.05718 0.262,0.16 l 2.184,6.345 c 0.02869,0.104708 -0.01179,0.216125 -0.101,0.278 l -6.712,3.89 c -0.03194,0.01352 -0.06632,0.02033 -0.101,0.02 -0.06199,0.01143 -0.126018,8.21e-4 -0.181,-0.03 l -2.355,-1.465 c -0.04285,-0.02222 -0.07778,-0.05715 -0.1,-0.1 l -4.6000001,-10.483 -7.005,3.95 c -0.0849,0.0427 -0.184188,0.04635 -0.272,0.01 l -1.59200004,-0.898 c -0.107145,-0.05755 -0.150965,-0.18857 -0.1,-0.299 L 6.8262089,3.8797387 c 2.23685,-1.3272293 4.5994151,-2.5809151 6.8950001,-3.85000001 0.07544,-0.03965159 0.16556,-0.03965159 0.241,0 l 1.923,1.03000001 z m 1.731,10.8209993 c -0.150661,-0.551813 -0.108324,-1.138534 0.12,-1.663 0.229276,-0.5269249 0.630452,-0.9605333 1.138,-1.2299993 1.059092,-0.5860685 2.374951,-0.4246629 3.261,0.4 1.011216,0.9625753 1.043998,2.5648683 0.073,3.5679993 l -0.073,0.073 c -1.062723,1.00108 -2.720006,1.005456 -3.788,0.01 -0.338472,-0.317312 -0.59012,-0.715955 -0.731,-1.158 z"
     fill="#000000"
     id="path18-3"
     sodipodi:nodetypes="cccccccccccccccccccccccccccccccccc"
     style="fill:#ffffff;fill-opacity:1" />
  <path
     d="M22.069 10.075a2.273 2.273 0 00-.887-.74 2.296 2.296 0 00-2.237.16 2.265 2.265 0 00-.77.859 2.016 2.016 0 00.392 2.274 3.342 3.342 0 002.23-.63 3.289 3.289 0 001.271-1.923zM15.3 1.3l-1.45-.788-6.31 3.481.503.27.957.498 1.732-.954 4.569-2.523-.001.016zm.584-.24a.225.225 0 01.16.15l2.114 6.182a.205.205 0 01-.1.269 4.063 4.063 0 00-1.798 1.974 4.017 4.017 0 00-.175 2.655 4.283 4.283 0 001.755 2.332c.842.55 1.852.79 2.854.68a.269.269 0 01.262.16l2.184 6.345a.256.256 0 01-.101.278l-6.712 3.89a.253.253 0 01-.101.02.27.27 0 01-.181-.03L13.69 24.5a.234.234 0 01-.1-.1l-4.6-10.483-7.005 3.95a.327.327 0 01-.272.01l-1.592-.898a.23.23 0 01-.1-.299l6.805-12.8a.243.243 0 01.11-.099L13.721.03a.259.259 0 01.241 0l1.923 1.03zM7.47 4.499L7.14 4.33.58 16.71l1.197.668 5.657-7.335a.275.275 0 01.231-.1.282.282 0 01.201.149l6.16 14.066 1.646 1.007L9.06 6.005l-.281-.798-1.318-.718.01.01zm10.145 7.382a2.51 2.51 0 01.12-1.663 2.54 2.54 0 011.138-1.23 2.798 2.798 0 013.261.4 2.513 2.513 0 01.073 3.568l-.073.073a2.77 2.77 0 01-3.788.01 2.719 2.719 0 01-.731-1.158z"
     fill="#000"
     id="path18" />
</svg>
